<svg width="19" height="18" viewBox="0 0 19 18" fill="none" xmlns="http://www.w3.org/2000/svg">
<g clip-path="url(#clip0_3_17)">
<path d="M0.300018 9C0.300018 8.84766 0.355682 8.71582 0.46701 8.60449C0.578339 8.49316 0.710175 8.4375 0.862518 8.4375H13.2375C13.3899 8.4375 13.5217 8.49316 13.633 8.60449C13.7444 8.71582 13.8 8.84766 13.8 9C13.8 9.15234 13.7444 9.28418 13.633 9.39551C13.5217 9.50684 13.3899 9.5625 13.2375 9.5625H0.862518C0.710175 9.5625 0.578339 9.50684 0.46701 9.39551C0.355682 9.28418 0.300018 9.15234 0.300018 9ZM7.77072 3.5332C7.88791 3.42773 8.02267 3.375 8.17502 3.375C8.32736 3.375 8.46213 3.42773 8.57932 3.5332L13.6418 8.5957C13.7473 8.71289 13.8 8.84766 13.8 9C13.8 9.15234 13.7473 9.28711 13.6418 9.4043L8.57932 14.4668C8.46213 14.5723 8.32736 14.625 8.17502 14.625C8.02267 14.625 7.88791 14.5723 7.77072 14.4668C7.66525 14.3496 7.61252 14.2148 7.61252 14.0625C7.61252 13.9102 7.66525 13.7754 7.77072 13.6582L12.4465 9L7.77072 4.3418C7.66525 4.22461 7.61252 4.08984 7.61252 3.9375C7.61252 3.78516 7.66525 3.65039 7.77072 3.5332Z" fill="black"/>
</g>
<defs>
<clipPath id="clip0_3_17">
<rect width="18" height="18" fill="white" transform="matrix(1 0 0 -1 0.300018 18)"/>
</clipPath>
</defs>
</svg>
