<svg width="19" height="18" viewBox="0 0 19 18" fill="none" xmlns="http://www.w3.org/2000/svg">
<g clip-path="url(#clip0_3_12)">
<path d="M0.830009 9C0.830009 8.84766 0.885674 8.71582 0.997002 8.60449C1.10833 8.49316 1.24017 8.4375 1.39251 8.4375H13.7675C13.9199 8.4375 14.0517 8.49316 14.163 8.60449C14.2743 8.71582 14.33 8.84766 14.33 9C14.33 9.15234 14.2743 9.28418 14.163 9.39551C14.0517 9.50684 13.9199 9.5625 13.7675 9.5625H1.39251C1.24017 9.5625 1.10833 9.50684 0.997002 9.39551C0.885674 9.28418 0.830009 9.15234 0.830009 9ZM8.30071 3.5332C8.4179 3.42773 8.55267 3.375 8.70501 3.375C8.85735 3.375 8.99212 3.42773 9.10931 3.5332L14.1718 8.5957C14.2773 8.71289 14.33 8.84766 14.33 9C14.33 9.15234 14.2773 9.28711 14.1718 9.4043L9.10931 14.4668C8.99212 14.5723 8.85735 14.625 8.70501 14.625C8.55267 14.625 8.4179 14.5723 8.30071 14.4668C8.19524 14.3496 8.14251 14.2148 8.14251 14.0625C8.14251 13.9102 8.19524 13.7754 8.30071 13.6582L12.9765 9L8.30071 4.3418C8.19524 4.22461 8.14251 4.08984 8.14251 3.9375C8.14251 3.78516 8.19524 3.65039 8.30071 3.5332Z" fill="white"/>
</g>
<defs>
<clipPath id="clip0_3_12">
<rect width="18" height="18" fill="white" transform="matrix(1 0 0 -1 0.830009 18)"/>
</clipPath>
</defs>
</svg>
