<svg width="20" height="20" viewBox="0 0 20 20" fill="none" xmlns="http://www.w3.org/2000/svg">
<path d="M7.1875 3.125C6.36719 3.125 5.59896 3.28125 4.88281 3.59375C4.15365 3.90625 3.52214 4.32943 2.98828 4.86328C2.45443 5.39714 2.03125 6.02865 1.71875 6.75781C1.40625 7.47396 1.25 8.24219 1.25 9.0625C1.25 9.88281 1.40625 10.651 1.71875 11.3672C2.03125 12.0964 2.45443 12.7279 2.98828 13.2617C3.52214 13.7956 4.15365 14.2188 4.88281 14.5312C5.59896 14.8438 6.36719 15 7.1875 15C8.00781 15 8.77604 14.8438 9.49219 14.5312C10.2214 14.2188 10.8529 13.7956 11.3867 13.2617C11.9206 12.7279 12.3438 12.0964 12.6562 11.3672C12.9688 10.651 13.125 9.88281 13.125 9.0625C13.125 8.24219 12.9688 7.47396 12.6562 6.75781C12.3438 6.02865 11.9206 5.39714 11.3867 4.86328C10.8529 4.32943 10.2214 3.90625 9.49219 3.59375C8.77604 3.28125 8.00781 3.125 7.1875 3.125ZM0 9.0625C0 8.07292 0.188802 7.14193 0.566406 6.26953C0.94401 5.39714 1.45833 4.63542 2.10938 3.98438C2.76042 3.33333 3.52214 2.81901 4.39453 2.44141C5.26693 2.0638 6.19792 1.875 7.1875 1.875C8.17708 1.875 9.10807 2.0638 9.98047 2.44141C10.8529 2.81901 11.6146 3.33333 12.2656 3.98438C12.9167 4.63542 13.431 5.39714 13.8086 6.26953C14.1862 7.14193 14.375 8.07292 14.375 9.0625C14.375 10.0521 14.1862 10.9831 13.8086 11.8555C13.431 12.7279 12.9167 13.4896 12.2656 14.1406C11.6146 14.7917 10.8529 15.306 9.98047 15.6836C9.10807 16.0612 8.17708 16.25 7.1875 16.25C6.19792 16.25 5.26693 16.0612 4.39453 15.6836C3.52214 15.306 2.76042 14.7917 2.10938 14.1406C1.45833 13.4896 0.94401 12.7279 0.566406 11.8555C0.188802 10.9831 0 10.0521 0 9.0625ZM11.3867 13.2617C11.5039 13.1445 11.6504 13.0859 11.8262 13.0859C12.002 13.0859 12.1484 13.1445 12.2656 13.2617L16.0742 17.0508C16.1914 17.181 16.25 17.3307 16.25 17.5C16.25 17.6693 16.1914 17.819 16.0742 17.9492C15.944 18.0664 15.7943 18.125 15.625 18.125C15.4557 18.125 15.306 18.0664 15.1758 17.9492L11.3867 14.1406C11.2695 14.0234 11.2109 13.877 11.2109 13.7012C11.2109 13.5254 11.2695 13.3789 11.3867 13.2617Z" fill="black"/>
</svg>
