<svg width="60" height="38" viewBox="0 0 60 38" fill="none" xmlns="http://www.w3.org/2000/svg">
<g clip-path="url(#clip0_13_448)">
<path d="M38.0378 11.4844C38.142 11.4062 38.2559 11.3477 38.3796 11.3086C38.5033 11.2695 38.6303 11.25 38.7605 11.25C38.8907 11.25 39.0176 11.2695 39.1413 11.3086C39.265 11.3477 39.379 11.4062 39.4831 11.4844C39.6003 11.5495 39.698 11.6341 39.7761 11.7383C39.8542 11.8424 39.9128 11.9531 39.9519 12.0703L41.6706 16.3867C41.6706 16.3997 41.6706 16.4062 41.6706 16.4062C41.6706 16.4062 41.6706 16.4095 41.6706 16.416C41.6706 16.4225 41.6771 16.4258 41.6902 16.4258L46.2995 16.7187C46.8985 16.7578 47.2826 17.0605 47.4519 17.6269C47.6212 18.1934 47.4844 18.6588 47.0417 19.0234L43.5066 21.9727C43.5066 21.9727 43.5033 21.9759 43.4968 21.9824C43.4903 21.9889 43.487 21.9922 43.487 21.9922C43.487 21.9922 43.487 21.9954 43.487 22.0019C43.487 22.0085 43.487 22.0117 43.487 22.0117L44.6394 26.5039C44.7696 27.0508 44.6068 27.5065 44.1511 27.8711C43.6954 28.2357 43.2136 28.2552 42.7058 27.9297L38.7605 25.4297L35.0886 27.7539C34.5287 28.1055 33.9981 28.0794 33.4968 27.6758C32.9955 27.2721 32.823 26.7708 32.9792 26.1719L34.0339 22.0117C34.0339 22.0117 34.0339 22.0085 34.0339 22.0019C34.0339 21.9954 34.0339 21.9922 34.0339 21.9922C34.0339 21.9922 34.0307 21.9889 34.0241 21.9824C34.0176 21.9759 34.0144 21.9727 34.0144 21.9727L30.4792 19.0234C30.0365 18.6588 29.8998 18.1934 30.0691 17.6269C30.2383 17.0605 30.6225 16.7578 31.2214 16.7187L35.8308 16.4258C35.8438 16.4258 35.8503 16.4225 35.8503 16.416C35.8503 16.4095 35.8503 16.4062 35.8503 16.4062C35.8503 16.4062 35.8503 16.3997 35.8503 16.3867L37.5691 12.0703C37.6081 11.9531 37.6667 11.8424 37.7449 11.7383C37.823 11.6341 37.9206 11.5495 38.0378 11.4844ZM39.4441 24.375L43.3699 26.875C43.3829 26.875 43.3894 26.875 43.3894 26.875C43.3894 26.875 43.3959 26.875 43.4089 26.875C43.4089 26.862 43.4122 26.8555 43.4187 26.8555C43.4252 26.8555 43.4284 26.849 43.4284 26.8359C43.4284 26.8359 43.4284 26.8327 43.4284 26.8262C43.4284 26.8197 43.4284 26.8164 43.4284 26.8164L42.2761 22.3242C42.2501 22.207 42.2403 22.0866 42.2468 21.9629C42.2533 21.8392 42.2761 21.7187 42.3152 21.6016C42.3412 21.4844 42.39 21.3737 42.4616 21.2695C42.5333 21.1654 42.6146 21.0742 42.7058 20.9961L46.2409 18.0664C46.2409 18.0534 46.2442 18.0469 46.2507 18.0469C46.2572 18.0469 46.2605 18.0469 46.2605 18.0469C46.2605 18.0469 46.2605 18.0404 46.2605 18.0273C46.2605 18.0273 46.2605 18.0241 46.2605 18.0176C46.2605 18.0111 46.2605 18.0013 46.2605 17.9883C46.2605 17.9883 46.2572 17.985 46.2507 17.9785C46.2442 17.972 46.2409 17.9687 46.2409 17.9687C46.2409 17.9687 46.2344 17.9687 46.2214 17.9687L41.6316 17.6758C41.6316 17.6758 41.6283 17.6758 41.6218 17.6758C41.6153 17.6758 41.612 17.6758 41.612 17.6758C41.4949 17.6628 41.3777 17.6367 41.2605 17.5977C41.1433 17.5586 41.0391 17.5 40.948 17.4219C40.8438 17.3437 40.7559 17.2591 40.6843 17.168C40.6127 17.0768 40.5508 16.9727 40.4988 16.8555L38.78 12.5195C38.78 12.5065 38.78 12.5 38.78 12.5C38.78 12.5 38.7768 12.5 38.7702 12.5C38.7637 12.5 38.7605 12.5 38.7605 12.5C38.7605 12.5 38.7572 12.5 38.7507 12.5C38.7442 12.5 38.7409 12.5 38.7409 12.5C38.7409 12.5 38.7409 12.5065 38.7409 12.5195L37.0222 16.8555C36.9701 16.9727 36.9083 17.0768 36.8366 17.168C36.765 17.2591 36.6771 17.3437 36.573 17.4219C36.4818 17.5 36.3777 17.5586 36.2605 17.5977C36.1433 17.6367 36.0261 17.6628 35.9089 17.6758L31.2995 17.9687C31.2865 17.9687 31.28 17.9687 31.28 17.9687C31.28 17.9687 31.2768 17.972 31.2702 17.9785C31.2637 17.985 31.2605 17.9883 31.2605 17.9883C31.2605 18.0013 31.2605 18.0111 31.2605 18.0176C31.2605 18.0241 31.2605 18.0273 31.2605 18.0273C31.2605 18.0404 31.2605 18.0469 31.2605 18.0469C31.2605 18.0469 31.2637 18.0469 31.2702 18.0469C31.2768 18.0469 31.28 18.0534 31.28 18.0664L34.8152 20.9961C34.9063 21.0742 34.9877 21.1654 35.0593 21.2695C35.1309 21.3737 35.1797 21.4844 35.2058 21.6016C35.2449 21.7187 35.2676 21.8392 35.2741 21.9629C35.2807 22.0866 35.2709 22.207 35.2449 22.3242L34.1902 26.4844C34.1771 26.5234 34.1771 26.5625 34.1902 26.6016C34.2032 26.6406 34.2227 26.6667 34.2488 26.6797C34.2618 26.6927 34.2748 26.7025 34.2878 26.709C34.3008 26.7155 34.3139 26.7187 34.3269 26.7187C34.3399 26.7187 34.3529 26.7187 34.3659 26.7187C34.379 26.7187 34.3985 26.7122 34.4245 26.6992L38.0769 24.375C38.181 24.3099 38.2917 24.2611 38.4089 24.2285C38.5261 24.196 38.6433 24.1797 38.7605 24.1797C38.8777 24.1797 38.9949 24.196 39.112 24.2285C39.2292 24.2611 39.3399 24.3099 39.4441 24.375Z" fill="black"/>
</g>
<rect x="42" width="18" height="18" rx="9" fill="#2EBB77"/>
<path d="M51.2005 13.144C50.4885 13.144 49.8645 12.952 49.3285 12.568C48.8005 12.176 48.3885 11.636 48.0925 10.948C47.7965 10.252 47.6485 9.444 47.6485 8.524C47.6485 7.604 47.7965 6.8 48.0925 6.112C48.3885 5.416 48.8005 4.876 49.3285 4.492C49.8565 4.108 50.4765 3.916 51.1885 3.916C51.9005 3.916 52.5205 4.108 53.0485 4.492C53.5765 4.876 53.9885 5.416 54.2845 6.112C54.5885 6.8 54.7405 7.604 54.7405 8.524C54.7405 9.444 54.5925 10.252 54.2965 10.948C54.0005 11.644 53.5845 12.184 53.0485 12.568C52.5205 12.952 51.9045 13.144 51.2005 13.144ZM51.2005 12.052C51.6805 12.052 52.0965 11.908 52.4485 11.62C52.8005 11.324 53.0725 10.912 53.2645 10.384C53.4645 9.856 53.5645 9.236 53.5645 8.524C53.5645 7.812 53.4645 7.192 53.2645 6.664C53.0725 6.136 52.7965 5.728 52.4365 5.44C52.0845 5.152 51.6685 5.008 51.1885 5.008C50.7085 5.008 50.2925 5.152 49.9405 5.44C49.5885 5.728 49.3125 6.136 49.1125 6.664C48.9205 7.192 48.8245 7.812 48.8245 8.524C48.8245 9.228 48.9205 9.844 49.1125 10.372C49.3125 10.9 49.5885 11.312 49.9405 11.608C50.3005 11.904 50.7205 12.052 51.2005 12.052Z" fill="white"/>
<defs>
<clipPath id="clip0_13_448">
<rect width="20" height="20" fill="white" transform="matrix(1 0 0 -1 30 30)"/>
</clipPath>
</defs>
</svg>
